<?xml version="1.0" standalone="no"?><!DOCTYPE svg PUBLIC "-//W3C//DTD SVG 1.1//EN" "http://www.w3.org/Graphics/SVG/1.1/DTD/svg11.dtd"><svg t="1665726238961" class="icon" viewBox="0 0 1024 1024" version="1.1" xmlns="http://www.w3.org/2000/svg" p-id="37266" xmlns:xlink="http://www.w3.org/1999/xlink" width="24" height="24"><path d="M930.36 157v504.16a62.9 62.9 0 0 1-62.83 63h-83.17V350.19c0-60.7-49.28-110.07-109.85-110.07H300.36V157a62.88 62.88 0 0 1 62.93-62.83h504.15A62.92 62.92 0 0 1 930.36 157z" fill="#9B9B9B" p-id="37267"></path><path d="M674.36 300.12h-530a50 50 0 0 0-50 50v530a50 50 0 0 0 50 50h530a50 50 0 0 0 50-50v-530a50 50 0 0 0-50-50z m-132.48 435H276.52c-15.81 0-29.37-12-30.51-27.76a30 30 0 0 1 29.92-32.24h265.35c15.81 0 29.37 12 30.51 27.76a30 30 0 0 1-29.92 32.24z m0-180H276.52c-15.81 0-29.37-12-30.51-27.76a30 30 0 0 1 29.92-32.24h265.35c15.81 0 29.37 12 30.51 27.76a30 30 0 0 1-29.92 32.24z" fill="#9B9B9B" p-id="37268"></path></svg>