<?xml version="1.0" encoding="utf-8"?>
<!-- Generator: Adobe Illustrator 25.4.5, SVG Export Plug-In . SVG Version: 6.00 Build 0)  -->
<svg version="1.1" id="图层_1" xmlns="http://www.w3.org/2000/svg" xmlns:xlink="http://www.w3.org/1999/xlink" x="0px" y="0px"
	 viewBox="0 0 33 33" style="enable-background:new 0 0 33 33;" xml:space="preserve">
<style type="text/css">
	.st0{fill:none;stroke:#9B9B9B;stroke-width:2.9;stroke-miterlimit:10;}
</style>
<path class="st0" d="M16.5,7.5c2.8-2.1,7-4,8-3c1.3,1.3-3.3,6.8-2,8c1,1,4.5-2.2,6-1c1.2,1,0.9,4.6-1,6c-2.6,2-7.3-1.1-8,0
	c-0.8,1.3,5.9,5.3,5,8c-0.8,2.4-7.6,3.2-9,1c-0.9-1.3,0.8-3.3,0-4c-1.4-1.4-8.2,3.9-9,3c-0.9-0.9,5.4-7,4-9c-0.7-1-2.4,0-4-1
	c-3.4-2.1-2.8-10.5-1-11c1.7-0.5,3.6,6.3,7,6C13.8,10.4,14,9.3,16.5,7.5z"/>
</svg>
