<?xml version="1.0" standalone="no"?><!DOCTYPE svg PUBLIC "-//W3C//DTD SVG 1.1//EN" "http://www.w3.org/Graphics/SVG/1.1/DTD/svg11.dtd"><svg t="1665726097223" class="icon" viewBox="0 0 1024 1024" version="1.1" xmlns="http://www.w3.org/2000/svg" p-id="28806" xmlns:xlink="http://www.w3.org/1999/xlink" width="24" height="24"><path d="M831.1 329.2H192c-77.6 0-136.9 59.4-136.9 136.9V740h182.6v182.6h547.7V740H968V466.1c0-77.5-59.4-136.9-136.9-136.9z m-137 502.1H329V603.1h365.1v228.2z m137-319.5c-27.4 0-45.7-18.3-45.7-45.7 0-27.4 18.3-45.6 45.7-45.6 27.4 0 45.6 18.2 45.6 45.6 0 27.4-18.2 45.7-45.6 45.7zM785.4 101H237.7v182.6h547.7V101z" p-id="28807" fill="#9B9B9B"></path></svg>