<?xml version="1.0" encoding="utf-8"?>
<!-- Generator: Adobe Illustrator 25.4.5, SVG Export Plug-In . SVG Version: 6.00 Build 0)  -->
<svg version="1.1" id="图层_1" xmlns="http://www.w3.org/2000/svg" xmlns:xlink="http://www.w3.org/1999/xlink" x="0px" y="0px"
	 viewBox="0 0 24 24" style="enable-background:new 0 0 24 24;" xml:space="preserve">
<style type="text/css">
	.st0{fill:#9B9B9B;}
</style>
<path class="st0" d="M8.7,23.6c-1.3-0.4-2.6-1-3.7-1.8L5,19.3c0-1.1-0.7-2-1.7-2.2l-2.4-0.5c-0.5-1.3-0.9-2.7-0.9-4l1.9-1.5
	C2.8,10.5,3,9.4,2.5,8.4L1.5,6.2C2.1,5,3,3.9,4,3l2.4,0.6c1,0.3,2.1-0.3,2.5-1.2l1-2.2C10.6,0.1,11.3,0,12,0c0.7,0,1.4,0.1,2.1,0.2
	l1,2.2c0.4,1,1.5,1.5,2.5,1.2L19.9,3c1,0.9,1.9,2,2.6,3.2l-1.1,2.2c-0.5,0.9-0.2,2.1,0.6,2.7l1.9,1.5c-0.1,1.4-0.4,2.8-0.9,4
	l-2.4,0.5c-1,0.2-1.8,1.1-1.7,2.2l0.1,2.4c-1.1,0.8-2.4,1.4-3.7,1.8L13.4,22c-0.8-0.7-2-0.7-2.8,0C10.6,22,8.7,23.6,8.7,23.6z
	 M12,16.9c2.7,0,4.9-2.2,4.9-4.9S14.7,7.1,12,7.1l0,0c-2.7,0-4.9,2.2-4.9,4.9S9.3,16.9,12,16.9z"/>
</svg>
