<?xml version="1.0" encoding="utf-8"?><!-- Generator: Adobe Illustrator 25.4.5, SVG Export Plug-In . SVG Version: 6.00 Build 0)  --><svg version="1.1" id="_x3C_图层_x3E_" xmlns="http://www.w3.org/2000/svg" xmlns:xlink="http://www.w3.org/1999/xlink" x="0px" y="0px" viewBox="0 0 33 33" style="enable-background:new 0 0 33 33;" xml:space="preserve"><style type="text/css">.st0{fill:none;stroke:#9B9B9B;stroke-width:3;stroke-miterlimit:10;}.st1{fill:none;stroke:#9B9B9B;stroke-width:2;stroke-miterlimit:10;}.st2{fill:#9B9B9B;}</style><rect x="2.5" y="8.5" class="st0" width="28" height="18"/><rect x="12" y="15" class="st1" width="18" height="11"/><g><path class="st2" d="M16.95801,23.4834c-0.35254-0.19434-0.62598-0.46973-0.81934-0.82617c-0.19336-0.35547-0.29004-0.76758-0.29004-1.23633v-1.81152c0-0.46875,0.09668-0.88086,0.29004-1.23633c0.19336-0.35645,0.4668-0.63086,0.81934-0.82617c0.35352-0.19531,0.76074-0.29297,1.22363-0.29297s0.87109,0.09766,1.22461,0.29297c0.35254,0.19531,0.62598,0.46973,0.81934,0.82617c0.19336,0.35547,0.29004,0.76758,0.29004,1.23633v1.81152c0,0.46875-0.09668,0.88086-0.29004,1.23633c-0.19336,0.35645-0.4668,0.63184-0.81934,0.82617c-0.35352,0.19531-0.76172,0.29297-1.22461,0.29297S17.31152,23.67871,16.95801,23.4834z M18.75391,22.43359c0.16309-0.09277,0.29004-0.22363,0.37988-0.39355c0.08887-0.16992,0.13379-0.36621,0.13379-0.58887V19.5791c0-0.22266-0.04492-0.41895-0.13379-0.58887c-0.08984-0.16992-0.2168-0.30078-0.37988-0.39355c-0.16504-0.0918-0.35547-0.1377-0.57227-0.1377s-0.40723,0.0459-0.57031,0.1377c-0.16504,0.09277-0.29102,0.22363-0.38086,0.39355c-0.08887,0.16992-0.13379,0.36621-0.13379,0.58887v1.87207c0,0.22266,0.04492,0.41895,0.13379,0.58887c0.08984,0.16992,0.21582,0.30078,0.38086,0.39355c0.16309,0.0918,0.35352,0.1377,0.57031,0.1377S18.58887,22.52539,18.75391,22.43359z"/><path class="st2" d="M21.70215,17.32031h1.2041v6.38965h-1.2041V17.32031z M22.42676,21.21387l2.5625-3.89355h1.51563l-3.92383,5.45801L22.42676,21.21387z M23.49121,20.47559l1.03711-0.65527l2.24512,3.88965h-1.42871L23.49121,20.47559z"/></g></svg>